<svg xmlns="http://www.w3.org/2000/svg" width="222.504" height="58.887" viewBox="6.539 -58.887 222.504 58.887"><path fill="#fff" d="M19.62-6.54H32.7v-19.62H19.62zM39.27 0H13.08v-6.54H6.54v-45.81h6.54v-6.54h26.19v6.54h6.54v6.54H32.7v-6.54H19.62v19.65h19.65v6.54h6.54v19.62h-6.54zm32.69 0H58.89v-19.62h6.54V-32.7h6.53v-13.11h6.54v-6.54H52.35v-6.54h39.27v13.08h-6.54v13.11H78.5v13.08h-6.54zm58.93 0H104.7v-6.54h-6.54v-6.54h13.07v6.54h13.08v-19.62h-13.08v-6.54h13.08v-19.65h-13.08v6.54H98.16v-6.54h6.54v-6.54h26.19v6.54h6.54v19.65h-6.54v6.54h6.54v19.62h-6.54zm26.15-19.62h6.54V-32.7h-6.54zM176.7 0h-13.12v-13.08h-19.62v-13.08h6.54v-13.11h6.54v-13.08h6.54v-6.54h13.12v39.27h6.53v6.54h-6.53zm26.15-6.54h13.08v-19.62h-13.08zm0-26.16h13.08v-19.65h-13.08zM222.5 0h-26.19v-6.54h-6.54v-19.62h6.54v-6.54h-6.54v-19.65h6.54v-6.54h26.19v6.54h6.54v19.65h-6.54v6.54h6.54v19.62h-6.54z"/></svg>