<svg xmlns="http://www.w3.org/2000/svg" width="px" height="100" viewBox="0 0 100 100"><path d="M2.09 55.047a7.14 7.14 0 0 1 0-10.094L44.953 2.09a7.14 7.14 0 0 1 10.094 0L97.91 44.953a7.14 7.14 0 0 1 0 10.094L55.047 97.91a7.14 7.14 0 0 1-10.094 0Zm0 0" style="stroke:none;fill-rule:nonzero;fill:#ee513b;fill-opacity:1"/><path d="m36.246 10.934-4.34 4.34 11.211 11.21a7.6 7.6 0 0 0-.707 3.203c0 3.25 2.04 6.02 4.91 7.102v27.426A7.59 7.59 0 0 0 50 78.906a7.587 7.587 0 0 0 7.586-7.59c0-2.945-1.676-5.5-4.129-6.757v-27.73l10.719 10.714a7.59 7.59 0 1 0 4.582-4.098L57.25 31.938a7.7 7.7 0 0 0 .336-2.25 7.587 7.587 0 0 0-9.836-7.25Zm0 0" style="stroke:none;fill-rule:nonzero;fill:#fff;fill-opacity:1"/></svg>