<svg xmlns="http://www.w3.org/2000/svg" width="100" height="100" viewBox="0 0 112 100"><path d="M92.086 32.43a74 74 0 0 0-3.606-1.14q.306-1.251.56-2.466c2.726-13.281.944-23.98-5.15-27.504-5.843-3.375-15.398.145-25.05 8.567a75 75 0 0 0-2.79 2.562 62 62 0 0 0-1.855-1.715C44.082 1.73 33.945-2.062 27.855 1.47 22.02 4.855 20.29 14.914 22.746 27.5c.238 1.219.516 2.457.828 3.723a74 74 0 0 0-4.144 1.304C7.574 36.672 0 43.168 0 49.907c0 6.956 8.129 13.937 20.48 18.167.973.336 1.985.649 3.028.95a76 76 0 0 0-.88 4.007c-2.343 12.371-.51 22.192 5.31 25.555 6.011 3.477 16.105-.094 25.933-8.707a65 65 0 0 0 2.336-2.16 74 74 0 0 0 3.027 2.77c9.52 8.21 18.918 11.527 24.735 8.152 6.008-3.485 7.96-14.036 5.426-26.871a59 59 0 0 0-.672-3q1.067-.317 2.082-.653C103.645 63.852 112 56.957 112 49.907c0-6.762-7.816-13.302-19.914-17.477M89.3 63.563q-.92.303-1.88.59c-1.417-4.5-3.331-9.282-5.671-14.223 2.234-4.825 4.07-9.547 5.45-14.02 1.144.332 2.257.684 3.327 1.055 10.368 3.578 16.688 8.863 16.688 12.941 0 4.34-6.828 9.973-17.914 13.657m-4.598 9.136c1.121 5.676 1.281 10.809.535 14.82-.664 3.606-2.008 6.008-3.664 6.97-3.531 2.05-11.078-.614-19.219-7.637a67 67 0 0 1-2.816-2.575c3.156-3.457 6.309-7.48 9.387-11.949 5.414-.48 10.531-1.27 15.168-2.344q.345 1.39.61 2.715m-46.52 21.438c-3.449 1.218-6.195 1.254-7.855.297-3.531-2.043-5-9.93-3-20.508q.346-1.816.82-3.727c4.586 1.016 9.665 1.75 15.094 2.192 3.098 4.37 6.344 8.386 9.613 11.906a57 57 0 0 1-2.132 1.969c-4.348 3.808-8.703 6.511-12.54 7.87M22.028 63.535c-5.46-1.87-9.972-4.3-13.062-6.957-2.777-2.383-4.18-4.754-4.18-6.672 0-4.09 6.078-9.304 16.219-12.847 1.23-.434 2.52-.836 3.855-1.22 1.403 4.571 3.243 9.352 5.461 14.184-2.25 4.903-4.113 9.758-5.527 14.38a56 56 0 0 1-2.766-.868m5.414-36.953c-2.101-10.785-.707-18.922 2.813-20.96C34 3.444 42.285 6.546 51.02 14.32a61 61 0 0 1 1.68 1.555c-3.255 3.504-6.47 7.488-9.54 11.836-5.27.488-10.312 1.277-14.945 2.328a72 72 0 0 1-.774-3.457m48.313 11.957a148 148 0 0 0-3.406-5.613c3.574.453 7 1.05 10.215 1.789-.965 3.101-2.168 6.344-3.586 9.668a166 166 0 0 0-3.223-5.844m-19.7-19.238c2.208 2.398 4.415 5.074 6.59 7.976-2.19-.101-4.41-.156-6.644-.156-2.215 0-4.418.05-6.594.156a105 105 0 0 1 6.649-7.976M36.228 38.574a138 138 0 0 0-3.164 5.805 108 108 0 0 1-3.56-9.715 107 107 0 0 1 10.157-1.75 144 144 0 0 0-3.433 5.656Zm3.535 28.66c-3.668-.41-7.13-.964-10.324-1.66.992-3.203 2.21-6.531 3.632-9.914 1 1.942 2.063 3.88 3.176 5.809a138 138 0 0 0 3.516 5.765m16.426 13.61c-2.27-2.45-4.532-5.164-6.743-8.082q3.219.124 6.555.125c2.281 0 4.54-.051 6.762-.149-2.184 2.969-4.383 5.688-6.574 8.106m22.835-25.356c1.497 3.418 2.758 6.73 3.762 9.875-3.25.742-6.754 1.344-10.45 1.785a164 164 0 0 0 3.438-5.71 152 152 0 0 0 3.25-5.95M71.63 59.04a157 157 0 0 1-5.371 8.691c-3.324.239-6.758.364-10.258.364-3.484 0-6.875-.11-10.14-.324a136.499 136.499 0 0 1-10.254-17.75A136.022 136.022 0 0 1 45.8 32.3c3.332-.25 6.746-.383 10.199-.383 3.469 0 6.887.133 10.219.387a145 145 0 0 1 5.394 8.636 155 155 0 0 1 4.828 9.012 143 143 0 0 1-4.812 9.086M81.5 5.477c3.75 2.168 5.207 10.914 2.852 22.378-.149.735-.32 1.477-.504 2.235-4.645-1.074-9.692-1.875-14.973-2.371-3.078-4.395-6.27-8.39-9.469-11.848a71 71 0 0 1 2.574-2.367C70.25 6.289 77.977 3.44 81.5 5.477M56 39.879c5.523 0 10 4.488 10 10.027 0 5.535-4.477 10.024-10 10.024S46 55.44 46 49.906c0-5.539 4.477-10.027 10-10.027m0 0" style="stroke:none;fill-rule:nonzero;fill:#00d8ff;fill-opacity:1"/></svg>