<svg xmlns="http://www.w3.org/2000/svg" width="100" height="100" viewBox="0 0 86 100"><path d="M84.906 75C85.582 73.793 86 72.43 86 71.207V28.789c0-1.223-.418-2.582-1.094-3.789L43 50Zm0 0" style="stroke:none;fill-rule:nonzero;fill:#7f3a86;fill-opacity:1"/><path d="m46.727 99.082 35.55-21.207c1.024-.613 1.953-1.668 2.63-2.875L43 50 1.094 75c.676 1.207 1.61 2.262 2.633 2.875l35.55 21.207c2.047 1.223 5.399 1.223 7.45 0m0 0" style="stroke:none;fill-rule:nonzero;fill:#662579;fill-opacity:1"/><path d="M84.906 25c-.676-1.207-1.605-2.262-2.629-2.875L46.723.918c-2.047-1.223-5.399-1.223-7.446 0L3.723 22.125C1.676 23.348 0 26.348 0 28.789v42.422C0 72.43.418 73.793 1.094 75Zm0 0" style="stroke:none;fill-rule:nonzero;fill:#9a5196;fill-opacity:1"/><path d="M43.137 78.57c-15.883 0-28.805-12.816-28.805-28.57s12.922-28.57 28.805-28.57c10.062 0 19.453 5.27 24.656 13.793l-12.336 7.37c-2.605-4.25-7.297-6.878-12.32-6.878-7.942 0-14.403 6.406-14.403 14.285s6.461 14.285 14.403 14.285c5.008 0 9.687-2.613 12.3-6.844l12.36 7.329c-5.2 8.527-14.598 13.8-24.66 13.8m0 0" style="stroke:none;fill-rule:nonzero;fill:#fff;fill-opacity:1"/><path d="M75.25 39.285v3.563h-7.168v-3.563H64.5v3.563h-3.582v3.582H64.5v7.125h-3.582v3.59H64.5v3.57h3.582v-3.57h7.168v3.57h3.582v-3.57h3.586V53.57h-3.586v-7.14h3.586v-3.582h-3.586v-3.563Zm0 14.285v-7.14h-7.168v7.125Zm0 0" style="stroke:none;fill-rule:evenodd;fill:#fff;fill-opacity:1"/></svg>