<svg xmlns="http://www.w3.org/2000/svg" width="px" height="100" viewBox="0 0 100 100"><path d="M15 0h70c8.285 0 15 6.715 15 15v70c0 8.285-6.715 15-15 15H15c-8.285 0-15-6.715-15-15V15C0 6.715 6.715 0 15 0m0 0" style="stroke:none;fill-rule:nonzero;fill:#f7df1e;fill-opacity:1"/><path d="M63.281 72.266c1.953 3.32 4.688 5.664 9.18 5.664 3.906 0 6.445-1.953 6.445-4.688 0-3.125-2.539-4.297-6.836-6.25l-2.343-.976c-6.836-2.93-11.329-6.446-11.329-14.063 0-7.031 5.274-12.5 13.672-12.5 6.055 0 10.352 2.149 13.282 7.617l-7.227 4.688c-1.562-2.93-3.32-4.102-6.055-4.102s-4.492 1.758-4.492 4.102c0 2.734 1.758 3.906 5.86 5.664l2.343.976c8.008 3.516 12.5 6.836 12.5 14.844 0 8.399-6.64 13.086-15.625 13.086-8.789 0-14.453-4.101-17.187-9.57Zm-33.203.78c1.563 2.54 2.735 4.884 6.055 4.884 3.125 0 5.078-1.172 5.078-5.86V39.648h9.375V71.68c0 9.765-5.664 14.062-14.063 14.062-7.617 0-11.914-3.906-14.062-8.594Zm0 0" style="stroke:none;fill-rule:nonzero;fill:#000;fill-opacity:1"/></svg>